<svg width="30" height="29" viewBox="0 0 30 29" fill="none" xmlns="http://www.w3.org/2000/svg">
<rect x="1.18975" y="0.60967" width="27.8827" height="27.3776" rx="13.6888" stroke="#A5BB7D" stroke-width="0.559185"/>
<path d="M10.6548 18.21C10.4988 18.366 10.4988 18.6189 10.6548 18.7749C10.8108 18.9308 11.0637 18.9308 11.2197 18.7749L10.6548 18.21ZM19.7245 10.1046C19.7245 9.88399 19.5457 9.70517 19.3251 9.70517L15.7303 9.70517C15.5098 9.70517 15.3309 9.88399 15.3309 10.1046C15.3309 10.3252 15.5098 10.504 15.7303 10.504H18.9257V13.6993C18.9257 13.9199 19.1045 14.0988 19.3251 14.0988C19.5457 14.0988 19.7245 13.9199 19.7245 13.6993L19.7245 10.1046ZM11.2197 18.7749L19.6075 10.387L19.0427 9.82215L10.6548 18.21L11.2197 18.7749Z" fill="#A5BB7D"/>
</svg>
