<svg width="15" height="15" viewBox="0 0 15 15" fill="none" xmlns="http://www.w3.org/2000/svg">
<rect x="1.03674" y="0.760375" width="13.4792" height="13.4792" rx="6.73958" stroke="#FAFFEE" stroke-width="0.968015"/>
<path d="M5.00172 9.54127C4.7992 9.74379 4.7992 10.0721 5.00172 10.2747C5.20424 10.4772 5.53258 10.4772 5.7351 10.2747L5.00172 9.54127ZM10.7027 5.09223C10.7027 4.80583 10.4705 4.57365 10.1841 4.57365L5.51692 4.57365C5.23052 4.57365 4.99834 4.80583 4.99834 5.09223C4.99834 5.37864 5.23052 5.61081 5.51692 5.61081L9.66556 5.61081L9.66556 9.75945C9.66556 10.0459 9.89773 10.278 10.1841 10.278C10.4705 10.278 10.7027 10.0459 10.7027 9.75945L10.7027 5.09223ZM5.7351 10.2747L10.5508 5.45892L9.81744 4.72554L5.00172 9.54127L5.7351 10.2747Z" fill="#FAFFEE"/>
</svg>
