<svg width="26" height="26" viewBox="0 0 26 26" fill="none" xmlns="http://www.w3.org/2000/svg">
<rect x="0.75" y="0.75" width="24.5" height="24.5" rx="12.25" stroke="#A5BB7D" stroke-width="1.5"/>
<path d="M8.13666 16.8027C7.84377 17.0956 7.84377 17.5704 8.13666 17.8633C8.42956 18.1562 8.90443 18.1562 9.19732 17.8633L8.13666 16.8027ZM18.0837 8.66634C18.0837 8.25213 17.7479 7.91634 17.3337 7.91634L10.5837 7.91634C10.1694 7.91634 9.83366 8.25213 9.83366 8.66634C9.83366 9.08056 10.1694 9.41634 10.5837 9.41634H16.5837V15.4163C16.5837 15.8306 16.9194 16.1663 17.3337 16.1663C17.7479 16.1663 18.0837 15.8306 18.0837 15.4163L18.0837 8.66634ZM9.19732 17.8633L17.864 9.19667L16.8033 8.13601L8.13666 16.8027L9.19732 17.8633Z" fill="#A5BB7D"/>
</svg>
