<svg width="18" height="17" viewBox="0 0 18 17" fill="none" xmlns="http://www.w3.org/2000/svg">
<g filter="url(#filter0_b_1_8351)">
<rect x="1.11135" y="0.530541" width="15.6941" height="15.6941" rx="7.84706" stroke="#A5BB7D" stroke-width="0.511765"/>
<path d="M10.2956 7.84278V6.23837C10.2956 5.88378 10.1548 5.5437 9.90403 5.29297C9.65329 5.04223 9.31322 4.90137 8.95862 4.90137C8.60403 4.90137 8.26395 5.04223 8.01322 5.29297C7.76248 5.5437 7.62162 5.88378 7.62162 6.23837V7.84278M11.6704 7.13221L12.1207 11.4106C12.1457 11.6477 11.9603 11.8538 11.7218 11.8538H6.19548C6.13922 11.8539 6.08358 11.8421 6.03217 11.8192C5.98075 11.7964 5.93472 11.763 5.89707 11.7212C5.85941 11.6794 5.83096 11.6301 5.81358 11.5766C5.79619 11.5231 5.79026 11.4666 5.79616 11.4106L6.24682 7.13221C6.25721 7.03365 6.30373 6.94242 6.3774 6.87613C6.45107 6.80983 6.54667 6.77316 6.64578 6.77318H11.2715C11.4768 6.77318 11.649 6.92827 11.6704 7.13221ZM7.75532 7.84278C7.75532 7.87824 7.74123 7.91225 7.71616 7.93732C7.69108 7.9624 7.65708 7.97648 7.62162 7.97648C7.58616 7.97648 7.55215 7.9624 7.52708 7.93732C7.502 7.91225 7.48792 7.87824 7.48792 7.84278C7.48792 7.80732 7.502 7.77331 7.52708 7.74824C7.55215 7.72317 7.58616 7.70908 7.62162 7.70908C7.65708 7.70908 7.69108 7.72317 7.71616 7.74824C7.74123 7.77331 7.75532 7.80732 7.75532 7.84278ZM10.4293 7.84278C10.4293 7.87824 10.4152 7.91225 10.3902 7.93732C10.3651 7.9624 10.3311 7.97648 10.2956 7.97648C10.2602 7.97648 10.2262 7.9624 10.2011 7.93732C10.176 7.91225 10.1619 7.87824 10.1619 7.84278C10.1619 7.80732 10.176 7.77331 10.2011 7.74824C10.2262 7.72317 10.2602 7.70908 10.2956 7.70908C10.3311 7.70908 10.3651 7.72317 10.3902 7.74824C10.4152 7.77331 10.4293 7.80732 10.4293 7.84278Z" stroke="#A5BB7D" stroke-width="0.554412" stroke-linecap="round" stroke-linejoin="round"/>
</g>
<defs>
<filter id="filter0_b_1_8351" x="-0.149183" y="-0.729994" width="18.2154" height="18.2151" filterUnits="userSpaceOnUse" color-interpolation-filters="sRGB">
<feFlood flood-opacity="0" result="BackgroundImageFix"/>
<feGaussianBlur in="BackgroundImageFix" stdDeviation="0.502326"/>
<feComposite in2="SourceAlpha" operator="in" result="effect1_backgroundBlur_1_8351"/>
<feBlend mode="normal" in="SourceGraphic" in2="effect1_backgroundBlur_1_8351" result="shape"/>
</filter>
</defs>
</svg>
