<svg width="76" height="76" viewBox="0 0 76 76" fill="none" xmlns="http://www.w3.org/2000/svg">
<g opacity="0.15">
<path d="M37.7441 45.769C37.7441 47.767 38.5379 49.6832 39.9507 51.0961C41.3635 52.5089 43.2797 53.3026 45.2778 53.3026C47.2758 53.3026 49.192 52.5089 50.6049 51.0961C52.0177 49.6832 52.8114 47.767 52.8114 45.769C52.8114 43.7709 52.0177 41.8547 50.6049 40.4419C49.192 39.0291 47.2758 38.2354 45.2778 38.2354C43.2797 38.2354 41.3635 39.0291 39.9507 40.4419C38.5379 41.8547 37.7441 43.7709 37.7441 45.769Z" stroke="#A5BB7D" stroke-width="2.15248" stroke-linecap="round" stroke-linejoin="round"/>
<path d="M40.2578 52.0469V63.3474L45.2803 59.5806L50.3027 63.3474V52.0469" stroke="#A5BB7D" stroke-width="2.15248" stroke-linecap="round" stroke-linejoin="round"/>
<path d="M32.7231 55.8125H20.167C18.835 55.8125 17.5575 55.2833 16.6156 54.3414C15.6737 53.3996 15.1445 52.1221 15.1445 50.79V25.6777C15.1445 22.9154 17.4046 20.6553 20.167 20.6553H55.3242C56.6562 20.6553 57.9337 21.1844 58.8756 22.1263C59.8175 23.0682 60.3467 24.3457 60.3467 25.6777V50.79C60.3458 51.6708 60.1133 52.5358 59.6725 53.2983C59.2317 54.0609 58.5982 54.6941 57.8354 55.1345M22.6782 30.7002H52.813M22.6782 38.2339H30.2119M22.6782 45.7676H27.7007" stroke="#A5BB7D" stroke-width="2.42154" stroke-linecap="round" stroke-linejoin="round"/>
</g>
</svg>
