<svg width="57" height="54" viewBox="0 0 57 54" fill="none" xmlns="http://www.w3.org/2000/svg">
<path d="M28.4861 31.3048C28.4861 33.6505 29.4179 35.9001 31.0766 37.5588C32.7353 39.2175 34.9849 40.1493 37.3306 40.1493C39.6764 40.1493 41.926 39.2175 43.5847 37.5588C45.2434 35.9001 46.1752 33.6505 46.1752 31.3048C46.1752 28.959 45.2434 26.7094 43.5847 25.0507C41.926 23.392 39.6764 22.4602 37.3306 22.4602C34.9849 22.4602 32.7353 23.392 31.0766 25.0507C29.4179 26.7094 28.4861 28.959 28.4861 31.3048Z" stroke="#A5BB7D" stroke-width="2.52703" stroke-linecap="round" stroke-linejoin="round"/>
<path d="M31.4353 38.675V51.942L37.3317 47.5197L43.2281 51.942V38.675" stroke="#A5BB7D" stroke-width="2.52703" stroke-linecap="round" stroke-linejoin="round"/>
<path d="M22.5903 43.0964H7.84929C6.28547 43.0964 4.78569 42.4752 3.6799 41.3694C2.57411 40.2636 1.95288 38.7638 1.95288 37.2V7.71794C1.95288 4.47492 4.60627 1.82153 7.84929 1.82153H49.1242C50.688 1.82153 52.1878 2.44276 53.2936 3.54855C54.3994 4.65434 55.0206 6.15412 55.0206 7.71794V37.2C55.0195 38.234 54.7466 39.2496 54.2291 40.1448C53.7116 41.04 52.9679 41.7834 52.0724 42.3004M10.7975 13.6144H46.176M10.7975 22.459H19.6421M10.7975 31.3036H16.6939" stroke="#A5BB7D" stroke-width="2.84291" stroke-linecap="round" stroke-linejoin="round"/>
</svg>
