<svg width="89" height="86" viewBox="0 0 89 86" fill="none" xmlns="http://www.w3.org/2000/svg">
<g opacity="0.15">
<path d="M11.5145 45.4598C11.5145 45.1109 11.7973 44.828 12.1462 44.828H44.05C44.3989 44.828 44.6818 45.1109 44.6818 45.4598V49.7241C44.6818 50.0731 44.3989 50.3559 44.05 50.3559H12.1462C11.7973 50.3559 11.5145 50.0731 11.5145 49.7241V45.4598ZM5.98657 31.6401C5.98657 31.2911 6.26942 31.0083 6.61833 31.0083H32.9942C33.3432 31.0083 33.626 31.2911 33.626 31.6401V35.9044C33.626 36.2533 33.3432 36.5362 32.9942 36.5362H6.61833C6.26942 36.5362 5.98657 36.2533 5.98657 35.9044V31.6401Z" fill="#A5BB7D" stroke="#E4F4E1" stroke-width="2.52703"/>
<path d="M83.1527 46.5024L74.8609 27.1548C74.6478 26.6577 74.2935 26.234 73.842 25.9363C73.3905 25.6386 72.8616 25.4799 72.3208 25.4798H64.6607C64.3118 25.4798 64.029 25.197 64.029 24.8481V19.9519C64.029 19.2189 63.7378 18.5159 63.2194 17.9975C62.7011 17.4792 61.9981 17.188 61.265 17.188H17.6737C17.3248 17.188 17.0419 17.4708 17.0419 17.8197V22.0841C17.0419 22.433 17.3248 22.7159 17.6737 22.7159H57.8693C58.2182 22.7159 58.5011 22.9987 58.5011 23.3476V57.0566C58.5011 57.2815 58.3807 57.4883 58.1901 57.6078C57.0605 58.3156 56.0674 59.2224 55.2595 60.2852C54.4767 61.3149 53.8814 62.473 53.4996 63.7062C53.4146 63.9806 53.1653 64.175 52.8781 64.175H36.4864C36.1983 64.175 35.9486 63.9795 35.8643 63.704C35.1276 61.2965 33.5892 59.2072 31.4973 57.7886C29.2702 56.2784 26.5687 55.6322 23.8993 55.9713C21.2298 56.3104 18.7757 57.6114 16.9968 59.6305C15.218 61.6495 14.2366 64.2481 14.2366 66.939C14.2366 69.6299 15.218 72.2284 16.9968 74.2475C18.7757 76.2665 21.2298 77.5676 23.8993 77.9066C26.5687 78.2457 29.2702 77.5995 31.4973 76.0893C33.5892 74.6708 35.1276 72.5814 35.8643 70.1739C35.9485 69.8984 36.1983 69.7029 36.4864 69.7029H52.8741C53.1632 69.7029 53.4136 69.8998 53.4971 70.1766C54.1539 72.3546 55.4715 74.2798 57.2733 75.6818C59.2046 77.1846 61.5818 78.0006 64.029 78.0006C66.4761 78.0006 68.8534 77.1846 70.7846 75.6818C72.5864 74.2798 73.904 72.3546 74.5609 70.1766C74.6443 69.8998 74.8947 69.7029 75.1839 69.7029H80.6126C81.3457 69.7029 82.0487 69.4117 82.567 68.8934C83.0854 68.375 83.3766 67.672 83.3766 66.939V47.5914C83.3765 47.2169 83.3003 46.8465 83.1527 46.5024ZM25.3338 72.4668C24.2404 72.4668 23.1717 72.1426 22.2626 71.5352C21.3536 70.9278 20.645 70.0645 20.2267 69.0544C19.8083 68.0443 19.6988 66.9328 19.9121 65.8605C20.1254 64.7882 20.6519 63.8032 21.425 63.0302C22.198 62.2571 23.183 61.7306 24.2553 61.5173C25.3276 61.304 26.4391 61.4135 27.4492 61.8319C28.4593 62.2503 29.3226 62.9588 29.93 63.8678C30.5374 64.7769 30.8616 65.8456 30.8616 66.939C30.8616 68.405 30.2792 69.8111 29.2426 70.8478C28.2059 71.8844 26.7998 72.4668 25.3338 72.4668ZM64.029 31.6395C64.029 31.2906 64.3118 31.0077 64.6607 31.0077H70.0801C70.3328 31.0077 70.5611 31.1583 70.6607 31.3905L76.0448 43.9467C76.2236 44.3636 75.9178 44.8274 75.4642 44.8274H64.6607C64.3118 44.8274 64.029 44.5446 64.029 44.1957V31.6395ZM64.029 72.4668C62.9356 72.4668 61.8669 72.1426 60.9578 71.5352C60.0488 70.9278 59.3403 70.0645 58.9219 69.0544C58.5035 68.0443 58.394 66.9328 58.6073 65.8605C58.8206 64.7882 59.3471 63.8032 60.1202 63.0302C60.8932 62.2571 61.8782 61.7306 62.9505 61.5173C64.0228 61.304 65.1343 61.4135 66.1444 61.8319C67.1545 62.2503 68.0178 62.9588 68.6252 63.8678C69.2326 64.7769 69.5568 65.8456 69.5568 66.939C69.5568 68.405 68.9744 69.8111 67.9378 70.8478C66.9011 71.8844 65.495 72.4668 64.029 72.4668ZM77.8487 63.5433C77.8487 63.8922 77.5658 64.175 77.2169 64.175H75.1821C74.8938 64.175 74.6439 63.9792 74.5598 63.7034C73.8966 61.5293 72.577 59.6086 70.7764 58.2084C69.0128 56.837 66.8789 56.0359 64.6586 55.9029C64.311 55.8821 64.029 55.6014 64.029 55.2532V50.9871C64.029 50.6381 64.3118 50.3553 64.6607 50.3553H77.2169C77.5658 50.3553 77.8487 50.6382 77.8487 50.9871V63.5433Z" fill="#A5BB7D" stroke="#E4F4E1" stroke-width="2.52703"/>
</g>
</svg>
