<svg width="8" height="7" viewBox="0 0 8 7" fill="none" xmlns="http://www.w3.org/2000/svg">
<path d="M5.6045 0.368164C4.91313 0.368164 4.31197 0.662807 3.95838 1.15657C3.60479 0.662807 3.00363 0.368164 2.31226 0.368164C1.78855 0.36874 1.28647 0.565605 0.916153 0.915572C0.545836 1.26554 0.337524 1.74003 0.336914 2.23496C0.336914 3.14347 0.936102 4.089 2.11802 5.0448C2.65961 5.48093 3.24463 5.86646 3.86488 6.19599C3.89363 6.21059 3.92575 6.21823 3.95838 6.21823C3.99101 6.21823 4.02314 6.21059 4.05188 6.19599C4.67213 5.86646 5.25715 5.48093 5.79874 5.0448C6.98066 4.089 7.57985 3.14347 7.57985 2.23496C7.57924 1.74003 7.37093 1.26554 7.00061 0.915572C6.63029 0.565605 6.12821 0.36874 5.6045 0.368164ZM3.95838 5.81641C3.41812 5.52176 0.731983 3.96859 0.731983 2.23496C0.732419 1.839 0.899052 1.45938 1.19532 1.1794C1.49158 0.899411 1.89328 0.741935 2.31226 0.741523C2.97993 0.741523 3.5406 1.07848 3.77566 1.62109C3.79054 1.65533 3.81586 1.68462 3.8484 1.70523C3.88093 1.72584 3.91921 1.73684 3.95838 1.73684C3.99755 1.73684 4.03583 1.72584 4.06837 1.70523C4.1009 1.68462 4.12622 1.65533 4.1411 1.62109C4.37617 1.07848 4.93684 0.741523 5.6045 0.741523C6.02348 0.741935 6.42518 0.899411 6.72145 1.1794C7.01771 1.45938 7.18434 1.839 7.18478 2.23496C7.18478 3.96859 4.49864 5.52176 3.95838 5.81641Z" fill="#A5BB7D" stroke="#A5BB7D" stroke-width="0.170588"/>
</svg>
