<svg width="89" height="76" viewBox="0 0 89 76" fill="none" xmlns="http://www.w3.org/2000/svg">
<path opacity="0.15" d="M86.2595 29.2279C86.2613 28.1264 85.9633 27.0441 85.3958 26.0911C84.8282 25.138 84.0115 24.3482 83.0285 23.802L47.9043 3.51792C46.892 2.94321 45.741 2.64038 44.569 2.64038C43.3971 2.64038 42.2461 2.94321 41.2338 3.51792L6.05744 23.802C5.08539 24.3632 4.28014 25.1609 3.72084 26.1167C3.16154 27.0725 2.86743 28.1534 2.86743 29.2533C2.86743 30.3532 3.16154 31.4341 3.72084 32.3899C4.28014 33.3456 5.08539 34.1434 6.05744 34.7046L16.0632 40.3841V54.6337C16.0692 55.7473 16.3696 56.8407 16.9354 57.8088C17.5013 58.7768 18.3136 59.5869 19.2942 60.1611L41.4423 72.5851C42.4311 73.1178 43.5429 73.3973 44.6733 73.3973C45.8036 73.3973 46.9154 73.1178 47.9043 72.5851L70.0524 60.1611C71.033 59.5869 71.8453 58.7768 72.4111 57.8088C72.977 56.8407 73.2774 55.7473 73.2834 54.6337V40.232L79.7454 36.5302V50.3233H86.2595V29.2279ZM66.8213 54.583L44.569 67.0577L22.5773 54.6337V44.1367L41.2338 54.938C42.2495 55.5027 43.3992 55.7998 44.569 55.7998C45.7389 55.7998 46.8885 55.5027 47.9043 54.938L66.7692 43.9846L66.8213 54.583ZM44.569 49.4613L9.39268 29.1772L44.569 8.84248L79.7454 29.1265L44.569 49.4613Z" fill="#A5BB7D" stroke="#FFF0EC" stroke-width="3.79055" stroke-linejoin="round"/>
</svg>
