<svg width="31" height="35" viewBox="0 0 31 35" fill="none" xmlns="http://www.w3.org/2000/svg">
  <path opacity="0.12" fill-rule="evenodd" clip-rule="evenodd" d="M18.0388 10.6321C20.7355 9.72351 21.4938 6.43694 20.4934 3.77504C19.4511 0.913059 16.8409 -0.570648 14.2781 0.259666C11.6264 1.11163 10.6363 3.99134 11.6551 6.65409C12.5413 9.28512 15.3868 11.5024 18.0388 10.6321ZM28.1436 7.26714C27.0791 6.64997 25.8321 6.47955 24.6315 6.78095C21.9929 7.4537 20.6846 10.0474 21.516 12.9402C22.257 15.6637 24.9061 17.9418 27.652 17.2482C30.387 16.5505 31.4481 13.274 30.6324 10.6205C30.2097 9.1408 29.3218 7.95185 28.1436 7.26714ZM9.40681 14.504C8.45451 15.0589 7.32983 15.1802 6.18049 14.8748C1.88878 13.744 -0.51079 7.44063 3.61824 5.04116C7.61675 2.74584 11.7929 7.18505 11.3694 11.2428C11.2237 12.6673 10.5117 13.8533 9.40681 14.504ZM14.9996 15.2976C10.5344 17.3735 10.8922 28.6886 12.2506 32.02C14.42 36.4928 19.1121 34.607 23.3953 32.6218L23.4027 32.6185C23.7363 32.4612 24.0692 32.3078 24.3986 32.1561C27.2168 30.8577 29.7857 29.6742 30.4569 27.119C30.6748 26.1638 30.524 25.1367 30.0043 24.0563C28.2702 20.939 19.4821 13.3325 14.9996 15.2976ZM8.84083 18.6985C9.82981 20.0975 10.2542 21.7498 10.0043 23.2393C9.80981 24.4121 9.19991 25.3972 8.29494 26.0129C5.9712 27.5844 2.69783 26.2613 1.12828 23.9369C0.233975 22.6596 -0.141402 21.2407 0.0768833 19.9295C0.275228 18.7459 0.941165 17.7083 1.95776 17.0243C4.18854 15.5036 7.0847 16.2114 8.84083 18.6985Z" fill="#FAFFEE" />
</svg>