<svg width="28" height="28" viewBox="0 0 28 28" fill="none" xmlns="http://www.w3.org/2000/svg">
  <path opacity="0.09" fill-rule="evenodd" clip-rule="evenodd" d="M18.0562 9.34851C20.3449 9.62205 22.1673 7.4725 22.4846 5.16816C22.8496 2.70218 21.5535 0.701564 19.3914 0.417221C17.157 0.117749 15.3265 1.88756 15.0221 4.19897C14.6348 6.44079 15.8146 9.06243 18.0562 9.34851ZM26.6156 10.4025C26.0917 9.57777 25.2631 9.01748 24.2842 8.81992C22.129 8.39339 20.1814 9.84209 19.6531 12.2571C19.1256 14.5162 20.1407 17.1139 22.3811 17.5626C24.6152 18.0044 26.651 15.968 27.0976 13.7342C27.3697 12.4998 27.1949 11.3166 26.6156 10.4025ZM10.356 9.18069C9.45682 9.25598 8.60249 8.95269 7.89645 8.3273C5.25626 5.99917 5.98564 0.53174 9.88203 0.209975C13.6442 -0.0808252 14.9148 4.63717 13.0328 7.46999C12.3742 8.46554 11.402 9.08826 10.356 9.18069ZM14.0597 11.7151C10.0478 11.6819 5.90406 20.1182 5.58335 23.0393C5.40068 27.0817 9.50143 27.3337 13.3473 27.3701L13.3539 27.3702C13.6545 27.3711 13.953 27.3746 14.2484 27.3781L14.2485 27.3781C16.7759 27.4077 19.0797 27.4348 20.5551 25.792C21.083 25.1664 21.3742 24.3594 21.4215 23.3844C21.3893 20.4895 18.0408 11.8358 14.0597 11.7151ZM8.31786 12.0643C8.4835 13.4371 8.14551 14.7988 7.38688 15.8058C6.79118 16.5993 5.97036 17.1101 5.08144 17.2467C2.80266 17.5901 0.968052 15.4761 0.74567 13.221C0.600625 11.9707 0.883043 10.7975 1.54961 9.91056C2.15228 9.11035 3.03372 8.58055 4.02932 8.43279C6.22163 8.09423 8.02482 9.62466 8.31786 12.0643Z" fill="#A5BB7D" />
</svg>
