<svg width="14" height="14" viewBox="0 0 14 14" fill="none" xmlns="http://www.w3.org/2000/svg">
<path d="M7.00033 1.16699C10.2221 1.16699 12.8337 3.77858 12.8337 7.00033C12.8337 10.2221 10.2221 12.8337 7.00033 12.8337C3.77858 12.8337 1.16699 10.2221 1.16699 7.00033C1.16699 3.77858 3.77858 1.16699 7.00033 1.16699ZM7.00033 2.33366C5.76265 2.33366 4.57566 2.82532 3.70049 3.70049C2.82532 4.57566 2.33366 5.76265 2.33366 7.00033C2.33366 8.238 2.82532 9.42499 3.70049 10.3002C4.57566 11.1753 5.76265 11.667 7.00033 11.667C8.238 11.667 9.42499 11.1753 10.3002 10.3002C11.1753 9.42499 11.667 8.238 11.667 7.00033C11.667 5.76265 11.1753 4.57566 10.3002 3.70049C9.42499 2.82532 8.238 2.33366 7.00033 2.33366ZM7.00033 3.50033C7.1432 3.50034 7.28111 3.5528 7.38788 3.64774C7.49465 3.74269 7.56286 3.87351 7.57958 4.01541L7.58366 4.08366V6.75883L9.16274 8.33791C9.26736 8.44288 9.3281 8.58375 9.33263 8.73188C9.33715 8.88002 9.28512 9.02433 9.1871 9.13549C9.08908 9.24665 8.95242 9.31634 8.80488 9.33039C8.65734 9.34445 8.50999 9.30182 8.39274 9.21116L8.33791 9.16274L6.58791 7.41274C6.49725 7.322 6.43902 7.20391 6.42224 7.07674L6.41699 7.00033V4.08366C6.41699 3.92895 6.47845 3.78058 6.58785 3.67118C6.69724 3.56178 6.84562 3.50033 7.00033 3.50033Z" fill="#A5BB7D" stroke="#A5BB7D" stroke-width="0.083787"/>
</svg>
